<?xml version="1.0" encoding="UTF-8"?>
<svg xmlns="http://www.w3.org/2000/svg" viewBox="0 0 55 55">
  <defs>
    <style>
      .cls-1 {
        fill: #fff;
      }

      .cls-2 {
        isolation: isolate;
      }

      .cls-3 {
        mix-blend-mode: multiply;
      }
    </style>
  </defs>
  <g class="cls-2">
    <g id="_レイヤー_2" data-name="レイヤー 2">
      <g id="_デザイン" data-name="デザイン">
        <g class="cls-3">
          <path class="cls-1" d="m0,55V0h55v55H0Zm10.57-15.44l.08-.08c-.16-.5-.35-.99-.48-1.49-.17-.62-.26-1.26-.44-1.88-.29-.99-.58-1.98-.93-2.95-.32-.86-.73-1.69-1.1-2.54-.2-.47-.42-.93-.58-1.41-.29-.87-.52-1.75-.82-2.62-.23-.68-.43-1.36-.53-2.08-.12-.93-.28-1.85-.41-2.78-.02-.16.01-.32.02-.48.05-.02.1-.05.15-.07.08.12.15.24.24.35.16.19.3.46.51.54,1.14.48,2.18,0,2.83-.9.16-.22.15-.22.29-.02.1.13.25.22.39.32.07.05.16.06.25.1.4.18.79.38,1.2.53.37.13.61-.14.82-.38.19-.22.49-.49.46-.7-.04-.31.04-.45.29-.61.26.43.7.46,1.13.53.35.06.67.13,1-.13.32-.25.37-.61.5-.93.1-.25-.04-.59.03-.85.13-.46,0-.87-.12-1.3-.08-.29-.29-.61.07-.88.02-.02-.01-.11-.02-.17-.06-.41-.16-.81-.16-1.22,0-.55.1-1.1.14-1.65.09-1.26.16-2.52.24-3.78.01-.24-.02-.48.02-.71.1-.57.24-1.14.35-1.71.01-.05-.04-.11-.05-.17-.02-.13-.07-.28-.05-.4.1-.65.2-1.31.34-1.96.12-.56.25-1.12.44-1.67.06-.18.33-.45.45-.43.2.04.41.26.52.45.16.3.3.63.34.96.16,1.47.34,2.95.32,4.43-.01.82-.05,1.63-.07,2.45-.01.48,0,.96,0,1.45,0,.23-.05.46-.04.68.03.44.23.88-.02,1.31-.03.06,0,.15,0,.23.04.26.12.52.13.79.01.71.21,1.36.46,2.01.14.38.29.76.36,1.15.04.2.02.52-.37.47-.08-.01-.18.02-.25.07-.41.25-.85.48-1.22.79-.32.27-.72.53-.63,1.09.03.16-.15.36-.25.53-.13.23-.31.44-.41.68-.11.26-.1.56-.22.81-.13.26-.11.7.19,1.01.06-.27.09-.5.16-.71.1-.31.22-.62.36-.91.18-.38.44-.73.56-1.12.15-.48.42-.86.8-1.12.37-.26.83-.39,1.26-.57.24.38.44.46.9.34-.02-.12-.04-.24-.07-.4.41.03.53-.17.49-.52-.01-.08.04-.17.08-.24.34-.48.68-.96,1.04-1.42.09-.11.31-.26.37-.23.4.23.53-.13.76-.29.32-.23.65-.45.98-.67.1-.07.22-.12.33-.19.22-.14.44-.28.66-.43l.08.12c-.41.52-.82,1.04-1.25,1.58.47.26.51.97,1.27.98-.17.2-.28.34-.4.46-.27.26-.62.47-.83.78-.54.82-1.09,1.64-1.51,2.53-.3.64-.33,1.39-.26,2.12.08.74-.19,1.38-.58,1.96-.55.82-1.18,1.6-1.71,2.44-.36.59-.63,1.24-.88,1.89-.12.31-.11.68-.13,1.03-.09,1.3-.21,2.59-.24,3.89-.01.66.17,1.33-.14,1.97.15.12.29.23.44.34.1-.07.23-.22.31-.2.55.13.26-.35.4-.52.03-.04-.02-.14-.02-.21.01-.59.07-1.18.02-1.76-.02-.31.12-.74-.33-.93-.02-.01,0-.19.04-.29.02-.06.15-.13.13-.16-.16-.39-.07-.73.17-1.05.02-.03,0-.08,0-.12.09-.91.12-1.83.58-2.66.1-.18.09-.5.23-.58.37-.22.39-.62.6-.92.32-.47.53-1.07.95-1.4.67-.53.65-1.39,1.15-1.98.02-.02,0-.08,0-.11-.02-.26-.03-.52-.08-.78-.03-.14-.11-.28-.19-.47,0-.01.07-.09.07-.17.03-.38.03-.76.38-1.02.03-.02,0-.23-.06-.28-.18-.13-.16-.19.02-.3.18-.1.49-.26.47-.33-.09-.35.24-.46.34-.7.11-.25.22-.59.43-.7.33-.16.42-.53.78-.68.26-.11.37-.57.57-.84.15-.21.35-.38.53-.56.08-.08.19-.14.24-.23.16-.34.37-.62.72-.79.24-.12.29-.32.17-.55-.32-.63-.84-1.09-1.46-1.36-.4-.18-.87-.34-1.37.02-.42.3-1.02.36-1.48.63-.55.32-1.06.72-1.55,1.13-.43.36-.81.76-1.19,1.17-.16.17-.25.2-.39.03-.62-.77-.89-1.63-.64-2.61.02-.09-.02-.2-.03-.3-.06-.55-.14-1.09-.16-1.64-.01-.55.04-1.11.07-1.66,0-.18.05-.36.05-.53,0-.55-.04-1.1-.03-1.64.02-.78.1-1.56.1-2.33,0-.83-.07-1.66-.15-2.48-.05-.49-.07-.99-.39-1.41-.32-.42-.61-.83-1.11-1.08-.37-.18-.65-.34-.93-.04-.31.34-.65.76-.73,1.19-.21,1.14-.29,2.31-.42,3.46-.06.52-.12,1.04-.18,1.56-.03.23-.07.45-.11.68-.11.83-.24,1.67-.33,2.5-.04.32,0,.66,0,.99-.41-.31-.75-.58-1.11-.83-.54-.37-1.14-.56-1.79-.58-.33,0-.67-.03-1-.09-.22-.04-.44-.2-.65-.18-.33.02-.73.05-.95.25-.28.26-.41.68-.59,1.03-.38.76-.39,1.57-.32,2.38-.17-.06-.31-.12-.42-.16-.05-.17-.04-.35-.13-.46-.67-.82-2.08-1.05-2.84-.12-.14.17-.11.47-.23.65-.27.39-.31.79-.16,1.23.04.11.03.23.03.34-.01.37-.05.74-.04,1.11,0,.2.18.48.1.6-.28.4-.07.86-.23,1.27-.04.1-.01.24.02.35.09.27.23.53.28.81.05.27-.02.56.04.83.06.26-.18.57.14.78.02.02.02.13,0,.15-.33.24-.01.4.08.56.17.32.13.51-.19.63.14.3.29.59.42.89.02.05.02.13,0,.19-.13.73-.12,1.42.37,2.04.08.1.07.26.11.4.02.08.03.22.09.24.39.16.33.51.39.82.05.24.14.47.22.71.04.12.12.23.16.36.09.31.14.64.26.95.15.38.36.73.54,1.08-.02,0-.07,0-.15-.01.24.42.47.81.7,1.21.04.07.05.17.06.25.02.15-.01.33.05.46.24.48.28,1.06.73,1.43.04.03.02.14.03.21,0,.1,0,.21.02.31.04.2.11.4.16.6-.04.01-.07.02-.11.04.25.37.58.78.42,1.2-.16.41.05.57.26.78-.07.1-.14.17-.18.24.1.08.23.13.27.22.1.27.16.55.24.83.03.1.03.25.09.29.23.12.47.21.71.31Zm32.55,6.9c-.14.19-.23.41-.4.54-.64.5-.85,1.23-1.15,1.93-.08.18-.19.36-.23.55-.14.62-.27,1.25-.37,1.88-.05.28,0,.58-.03.87-.02.28.07.47.35.6.03-.09.06-.17.07-.24.03-.6-.04-1.23.12-1.8.28-1.01.59-2.04,1.37-2.82.55-.55.91-1.19,1.22-1.89.2-.45.38-.95.87-1.21.07-.04.1-.17.13-.26.06-.17.08-.35.16-.51.22-.43.48-.84.7-1.27.21-.42.4-.85.6-1.27.07-.15.1-.31.18-.45.23-.42.51-.81.7-1.25.23-.5.36-1.05.59-1.55.29-.62.64-1.22.8-1.9.09-.36.3-.69.46-1.03.26-.53.55-1.06.79-1.6.3-.67.56-1.35.83-2.03.06-.16.06-.38.16-.47.44-.37.05-.44-.19-.49-.78-.19-1.61-.26-2.32.1-.74.37-1.64.51-2.19,1.24-.19.26-.4.5-.57.76-.12.19-.17.42-.28.62-.11.19-.26.36-.43.59-.03-.14-.07-.2-.05-.25.14-.55.43-1.1.42-1.64-.02-1.02.4-1.95.47-2.94.02-.31.16-.65.07-.92-.08-.23-.11-.38,0-.59.05-.09.03-.21.03-.32.01-.27-.1-.53.05-.82.11-.22.24-.54-.06-.8-.05-.04,0-.23.04-.34.04-.11.15-.2.18-.31.13-.51-.14-1.04.13-1.56.15-.29.14-.67.21-1.01.04-.2.09-.41.12-.61.02-.13,0-.27,0-.4,0-.42.06-.86-.27-1.23q.15-.23-.05-.54s-.04-.08-.03-.1c.2-.49-.27-.69-.48-.95-.24-.3-.65-.46-.98-.68-.24.26-.49.44-.62.69-.21.4-.7.58-.79,1.07-.06.33-.19.65-.26.98-.19.95-.38,1.9-.55,2.85-.13.73-.23,1.46-.36,2.19-.05.29-.04.64-.45.72-.02,0-.05.09-.05.13.11.71-.41,1.27-.42,1.96,0,.56-.17,1.13-.29,1.69-.05.23-.16.44-.27.64,0,.02-.25-.1-.39-.15-.11-.04-.22-.08-.33-.1-.25-.03-.52-.09-.76-.05-.26.04-.49.19-.74.3-.15.06-.29.13-.44.2-.12.02-.26-.05-.4-.13-.38-.24-.8-.34-1.23-.23-.35.09-.68.25-1.01.4-.15.06-.29.21-.44.22-.6.05-1.21.07-1.82.08-.24,0-.4.02-.47.31-.05.2-.24.38-.39.55-.31.36-.63.71-.94,1.07-.03.04-.04.09-.06.14-.1.31-.22.62-.29.94-.13.58-.24,1.17-.33,1.76-.05.34-.04.7-.07,1.05-.05.49-.13.98-.17,1.47-.04.51-.04,1.01-.07,1.52-.02.29-.08.59-.07.88.03,1.02.07,2.03.12,3.05.06,1.15.12,2.3.18,3.44,0,.03,0,.06,0,.08.39.69.26,1.43.24,2.16,0,.28.09.57.12.85.05.41.07.82.12,1.23.01.1.08.24.16.26.14.05.31.04.46.01.04,0,.07-.18.06-.28-.05-.99-.1-1.99-.17-2.98-.06-.74-.17-1.48-.22-2.22-.02-.27.12-.56.05-.8-.13-.5-.25-.98-.24-1.51.01-.56-.19-1.11-.15-1.69.04-.54-.08-1.1-.05-1.65.02-.44.15-.87.22-1.31.05-.36.05-.7-.03-1.08-.1-.49.03-1.05.13-1.56.12-.59.34-1.16.5-1.75.07-.27.04-.58.15-.82.27-.56.57-1.11.92-1.63.51-.78,1.21-1.22,2.2-.99.19.04.41.07.58.01.26-.09.49-.3.75-.38.36-.11.74-.21,1.11-.19.27.02.53.26.8.37.19.07.42.18.52-.16.02-.08.18-.12.29-.17.18-.08.37-.16.56-.22.14-.04.36-.12.42-.06.38.41.86.59,1.44.61.08-.11.24-.23.28-.38.11-.42.18-.86.26-1.29.06-.35.05-.74.2-1.05.2-.42.36-.81.21-1.27-.02-.05.03-.12.04-.18.03-.25.06-.5.08-.74.01-.12,0-.24.03-.35.15-.47.33-.93.45-1.41.08-.34.05-.72.13-1.07.11-.51.29-.99.16-1.54-.06-.25.03-.54.05-.79.38.11.7.22,1.03.3.58.13.8,0,1-.65.1.18.21.29.22.4,0,.23-.04.47-.07.7-.16,1.27-.33,2.54-.46,3.81-.06.59-.05,1.2-.09,1.79-.02.36-.07.71-.13,1.07-.08.49-.19.97-.25,1.46-.05.43-.08.87-.08,1.31,0,1.06-.38,2.09-.26,3.17.08.67.01,1.35.01,2.03,0,.55,0,.55.59.67.03-.1.09-.21.1-.32.06-.73.11-1.46.15-2.19.01-.21.4-.63.58-.7.11-.04.24-.16.28-.27.18-.46.24-.99.51-1.38.39-.57.88-1.08,1.62-1.27-.05.18-.21.33-.22.48-.02.43.02.86.06,1.29.01.1.13.24.24.28.24.1.51.15.87.25-.15.2-.31.33-.39.5-.38.85-.76,1.71-1.12,2.57-.24.58-.41,1.2-.68,1.77-.62,1.29-1.29,2.56-1.95,3.84-.04.08-.1.15-.14.22-.4.63-.8,1.26-1.18,1.9-.13.21-.18.47-.27.7-.13.31-.27.61-.4.89Z"/>
          <path d="m10.57,39.56c-.24-.1-.49-.18-.71-.31-.06-.03-.06-.19-.09-.29-.08-.28-.14-.56-.24-.83-.03-.09-.17-.14-.27-.22.05-.06.11-.14.18-.24-.21-.21-.42-.36-.26-.78.16-.42-.17-.83-.42-1.2.04-.01.07-.02.11-.04-.05-.2-.11-.4-.16-.6-.02-.1-.01-.21-.02-.31,0-.07.01-.18-.03-.21-.45-.37-.49-.95-.73-1.43-.06-.13-.03-.3-.05-.46-.01-.09-.02-.18-.06-.25-.22-.4-.45-.79-.7-1.21.08,0,.14,0,.15.01-.18-.35-.38-.7-.54-1.08-.12-.3-.17-.63-.26-.95-.04-.12-.12-.23-.16-.36-.08-.23-.17-.47-.22-.71-.06-.31,0-.66-.39-.82-.05-.02-.06-.16-.09-.24-.04-.13-.03-.3-.11-.4-.48-.62-.5-1.31-.37-2.04.01-.06.02-.14,0-.19-.14-.3-.28-.59-.42-.89.32-.13.36-.32.19-.63-.09-.16-.41-.32-.08-.56.02-.02.03-.13,0-.15-.31-.21-.08-.52-.14-.78-.06-.26.01-.56-.04-.83-.05-.28-.19-.54-.28-.81-.03-.11-.06-.25-.02-.35.16-.41-.06-.87.23-1.27.08-.12-.1-.39-.1-.6,0-.37.03-.74.04-1.11,0-.12,0-.24-.03-.34-.15-.44-.11-.83.16-1.23.13-.19.1-.48.23-.65.75-.93,2.16-.7,2.84.12.09.11.08.29.13.46.11.04.25.1.42.16-.07-.82-.06-1.63.32-2.38.18-.36.31-.78.59-1.03.22-.2.62-.23.95-.25.21-.01.43.15.65.18.33.05.67.08,1,.09.66.02,1.26.21,1.79.58.36.25.7.52,1.11.83,0-.33-.03-.67,0-.99.09-.84.22-1.67.33-2.5.03-.23.08-.45.11-.68.06-.52.12-1.04.18-1.56.13-1.16.21-2.32.42-3.46.08-.43.42-.85.73-1.19.27-.29.55-.14.93.04.51.25.8.66,1.11,1.08.32.42.35.93.39,1.41.08.82.15,1.65.15,2.48,0,.78-.08,1.55-.1,2.33-.01.55.02,1.09.03,1.64,0,.18-.04.36-.05.53-.03.55-.09,1.11-.07,1.66.01.55.1,1.09.16,1.64.01.1.05.21.03.3-.25.99.02,1.84.64,2.61.14.18.24.14.39-.03.37-.41.76-.81,1.19-1.17.49-.41,1-.81,1.55-1.13.46-.27,1.05-.32,1.48-.63.5-.36.97-.2,1.37-.02.62.27,1.14.73,1.46,1.36.12.24.07.44-.17.55-.35.17-.56.45-.72.79-.05.09-.16.15-.24.23-.18.18-.38.35-.53.56-.21.28-.31.74-.57.84-.36.15-.45.51-.78.68-.21.11-.33.44-.43.7-.1.23-.42.34-.34.7.02.07-.3.23-.47.33-.18.1-.2.17-.02.3.06.04.1.25.06.28-.36.26-.35.64-.38,1.02,0,.08-.07.16-.07.17.08.19.17.33.19.47.05.26.06.52.08.78,0,.04.02.09,0,.11-.5.58-.47,1.45-1.15,1.98-.42.33-.63.93-.95,1.4-.21.3-.23.7-.6.92-.14.08-.13.4-.23.58-.46.83-.49,1.75-.58,2.66,0,.04.02.09,0,.12-.23.32-.32.66-.17,1.05.01.03-.11.1-.13.16-.03.09-.07.28-.04.29.45.19.3.62.33.93.05.58-.01,1.17-.02,1.76,0,.07.05.17.02.21-.14.17.15.65-.4.52-.08-.02-.21.13-.31.2-.15-.12-.29-.22-.44-.34.32-.64.13-1.31.14-1.97.03-1.3.15-2.59.24-3.89.02-.34.02-.71.13-1.03.25-.65.51-1.3.88-1.89.52-.84,1.15-1.62,1.71-2.44.39-.59.66-1.23.58-1.96-.08-.73-.04-1.48.26-2.12.41-.88.96-1.71,1.51-2.53.2-.31.55-.52.83-.78.12-.12.23-.26.4-.46-.76,0-.8-.71-1.27-.98.43-.55.84-1.07,1.25-1.58l-.08-.12c-.22.14-.44.29-.66.43-.11.07-.22.12-.33.19-.33.22-.66.44-.98.67-.23.16-.36.52-.76.29-.06-.04-.28.12-.37.23-.36.46-.7.94-1.04,1.42-.05.07-.09.17-.08.24.05.35-.08.54-.49.52.03.16.05.28.07.4-.46.12-.66.04-.9-.34-.43.19-.88.32-1.26.57-.38.26-.66.64-.8,1.12-.12.39-.39.74-.56,1.12-.14.3-.25.6-.36.91-.07.21-.1.44-.16.71-.3-.3-.31-.75-.19-1.01.12-.25.12-.55.22-.81.1-.24.28-.45.41-.68.1-.17.27-.37.25-.53-.09-.56.31-.82.63-1.09.37-.31.81-.53,1.22-.79.07-.04.17-.08.25-.07.39.05.41-.26.37-.47-.07-.39-.22-.77-.36-1.15-.24-.65-.44-1.31-.46-2.01,0-.26-.09-.52-.13-.79-.01-.07-.04-.17,0-.23.25-.44.05-.88.02-1.31-.01-.22.04-.45.04-.68,0-.48,0-.96,0-1.45.02-.82.06-1.63.07-2.45.02-1.49-.16-2.96-.32-4.43-.04-.33-.18-.67-.34-.96-.11-.2-.32-.41-.52-.45-.12-.02-.38.24-.45.43-.18.54-.32,1.11-.44,1.67-.13.65-.24,1.3-.34,1.96-.02.13.03.27.05.4.01.06.06.12.05.17-.11.57-.25,1.14-.35,1.71-.04.23,0,.47-.02.71-.08,1.26-.15,2.52-.24,3.78-.04.55-.14,1.1-.14,1.65,0,.4.1.81.16,1.22,0,.06.04.15.02.17-.36.27-.15.59-.07.88.12.43.25.83.12,1.3-.07.27.06.6-.03.85-.12.32-.17.68-.5.93-.33.25-.64.19-1,.13-.43-.08-.87-.1-1.13-.53-.24.15-.33.29-.29.61.03.21-.27.48-.46.7-.21.24-.45.51-.82.38-.41-.15-.8-.35-1.2-.53-.08-.04-.17-.05-.25-.1-.14-.1-.3-.19-.39-.32-.14-.2-.14-.19-.29.02-.65.9-1.69,1.38-2.83.9-.21-.09-.35-.35-.51-.54-.09-.11-.16-.23-.24-.35-.05.02-.1.05-.15.07,0,.16-.04.32-.02.48.13.93.29,1.85.41,2.78.09.72.29,1.4.53,2.08.29.86.53,1.75.82,2.62.16.48.37.95.58,1.41.37.85.78,1.67,1.1,2.54.36.97.65,1.96.93,2.95.18.62.28,1.26.44,1.88.13.5.32.99.48,1.49l-.08.08Zm.91-26.73c-.33-.12-.31-.12-.48-.56-.09-.24-.22-.53-.54-.5-.2.02-.48.12-.58.28-.32.51-.72.99-.8,1.63-.07.51-.29,1.01-.11,1.55.1.3.12.63.16.94.11.8.2,1.61.31,2.44.06-.01.17,0,.23-.05.46-.38.97-.55,1.57-.44.06.01.23-.18.24-.29.05-.73.07-1.45.08-2.18,0-.16-.06-.32-.1-.47-.07-.31-.2-.62-.19-.93.02-.46.13-.91.21-1.41Zm-2.78,7.15c.02-.14.06-.28.04-.42-.06-.41-.16-.82-.22-1.24-.11-.68-.2-1.36-.32-2.04-.04-.22-.11-.48-.27-.62-.37-.34-.59-.78-.81-1.21-.14-.27-.29-.43-.62-.4-.4.04-1.09.75-1.17,1.23-.04.21-.15.42-.16.63-.02.24.03.48.07.72.07.47.15.94.24,1.4.06.32.14.64.23.96.07.24.17.47.25.71.04,0,.09-.01.13-.02-.09-.51.27-.67.61-.75.93-.22,1.49.32,2,1.05Zm3.77-2.29c.19-.14.31-.29.46-.33.33-.09.67-.14,1.01-.16.32-.02.47-.1.44-.47-.05-.53-.08-1.07-.08-1.6,0-.66.07-1.33-.33-1.91-.23-.35-.3-.87-.82-.93-.21-.02-.33-.11-.49-.18-.15-.06-.49-.02-.52.05-.07.22-.06.49-.03.73.02.21.12.41.14.62.05.54-.13,1.07.07,1.62.1.28.05.61.11.91.09.44.15.87,0,1.31-.03.07.02.17.04.34Zm-.33,1.92c-.53.16-.9-.08-1.05-.67-.03-.13-.13-.24-.2-.35-.15.1-.37.16-.44.29-.12.23-.18.5-.2.76-.04.52-.2,1.04.23,1.52.36.41.72.42,1.03-.05.09-.14.22-.26.35-.36.42-.31.52-.67.28-1.15Zm.74-1.02c.04.28-.06.69.37.89.03.02.02.11.05.16.11.23.19.48.34.66.09.1.42.17.45.12.2-.29.4-.59.48-.92.07-.29-.03-.61-.05-.92-.02-.32.12-.72-.42-.77-.05,0-.09-.11-.14-.13-.15-.04-.32-.11-.46-.07-.44.14-.63.44-.63.97Zm-6.09,3.28c.31-.1.7-.13.94-.34.21-.19.32-.57.35-.87.03-.23-.14-.48-.19-.72-.08-.36-.37-.52-.71-.37-.25.11-.5.67-.47.99.04.39.05.79.08,1.31Zm19.51-5.41c-.25.09-.42.19-.46.16-.3-.28-.51-.13-.74.08-.15.13-.37.2-.5.35-.18.19-.32.43-.44.66-.03.05.07.2.14.26.17.14.36.25.54.37.21-.19.44-.38.65-.59.26-.25.52-.5.74-.78.08-.11.05-.3.07-.5Z"/>
          <path d="m43.11,46.45c.13-.28.27-.59.4-.89.1-.23.15-.49.27-.7.38-.64.79-1.27,1.18-1.9.05-.08.1-.15.14-.22.65-1.28,1.32-2.55,1.95-3.84.27-.57.44-1.18.68-1.77.36-.86.73-1.72,1.12-2.57.08-.17.23-.31.39-.5-.37-.1-.63-.15-.87-.25-.1-.04-.23-.17-.24-.28-.05-.43-.08-.86-.06-1.29,0-.16.16-.31.22-.48-.74.19-1.23.7-1.62,1.27-.27.39-.33.92-.51,1.38-.04.11-.17.22-.28.27-.18.07-.57.49-.58.7-.05.73-.1,1.46-.15,2.19,0,.11-.07.21-.1.32-.59-.12-.59-.12-.59-.67,0-.68.06-1.36-.01-2.03-.13-1.08.26-2.11.26-3.17,0-.44.02-.88.08-1.31.06-.49.18-.97.25-1.46.06-.35.1-.71.13-1.07.04-.6.02-1.2.09-1.79.14-1.27.31-2.54.46-3.81.03-.23.08-.47.07-.7,0-.12-.12-.23-.22-.4-.19.65-.42.78-1,.65-.33-.08-.65-.19-1.03-.3-.02.26-.11.54-.05.79.13.54-.05,1.03-.16,1.54-.07.35-.04.72-.13,1.07-.12.48-.31.94-.45,1.41-.03.11-.02.24-.03.35-.03.25-.05.5-.08.74,0,.06-.05.13-.04.18.15.46,0,.85-.21,1.27-.15.31-.13.7-.2,1.05-.08.43-.14.86-.26,1.29-.04.15-.2.28-.28.38-.58-.02-1.05-.2-1.44-.61-.06-.06-.28.02-.42.06-.19.06-.38.14-.56.22-.1.05-.26.09-.29.17-.1.34-.33.23-.52.16-.28-.11-.53-.35-.8-.37-.36-.02-.75.08-1.11.19-.26.08-.49.29-.75.38-.17.06-.39.03-.58-.01-.99-.24-1.69.2-2.2.99-.34.52-.65,1.07-.92,1.63-.12.24-.08.55-.15.82-.16.58-.37,1.15-.5,1.75-.11.51-.24,1.07-.13,1.56.08.38.09.72.03,1.08-.07.44-.2.87-.22,1.31-.02.55.09,1.1.05,1.65-.04.58.16,1.13.15,1.69-.01.53.11,1.01.24,1.51.07.24-.07.54-.05.8.06.74.17,1.48.22,2.22.07.99.12,1.98.17,2.98,0,.1-.03.27-.06.28-.15.03-.32.03-.46-.01-.08-.02-.15-.17-.16-.26-.05-.41-.07-.82-.12-1.23-.03-.29-.13-.57-.12-.85.01-.73.15-1.48-.24-2.16-.01-.02,0-.05,0-.08-.06-1.15-.13-2.29-.18-3.44-.05-1.02-.09-2.03-.12-3.05,0-.29.06-.59.07-.88.03-.51.03-1.02.07-1.52.04-.49.12-.98.17-1.47.03-.35.02-.7.07-1.05.09-.59.2-1.18.33-1.76.07-.32.19-.63.29-.94.02-.05.03-.1.06-.14.31-.36.63-.71.94-1.07.15-.17.34-.35.39-.55.08-.29.24-.3.47-.31.61-.01,1.21-.03,1.82-.08.15-.01.29-.16.44-.22.33-.14.66-.31,1.01-.4.43-.11.85-.01,1.23.23.13.08.28.15.4.13.15-.07.29-.14.44-.2.24-.11.48-.25.74-.3.24-.04.51.02.76.05.11.01.22.06.33.1.14.05.38.16.39.15.11-.2.22-.42.27-.64.12-.56.29-1.12.29-1.69,0-.69.53-1.26.42-1.96,0-.04.02-.13.05-.13.41-.08.4-.42.45-.72.13-.73.23-1.46.36-2.19.17-.95.35-1.9.55-2.85.07-.33.2-.65.26-.98.09-.49.58-.67.79-1.07.13-.25.38-.43.62-.69.33.22.74.39.98.68.21.26.68.46.48.95-.01.03.01.07.03.1q.2.31.05.54c.33.36.27.8.27,1.23,0,.13.01.27,0,.4-.03.21-.08.41-.12.61-.07.34-.06.71-.21,1.01-.27.52,0,1.05-.13,1.56-.03.11-.14.2-.18.31-.04.11-.09.29-.04.34.29.26.16.58.06.8-.14.29-.03.55-.05.82,0,.11.02.24-.03.32-.12.21-.08.36,0,.59.09.27-.05.61-.07.92-.07.99-.49,1.92-.47,2.94.01.54-.27,1.09-.42,1.64-.01.05.02.11.05.25.17-.23.32-.4.43-.59.11-.2.16-.43.28-.62.17-.27.38-.51.57-.76.54-.74,1.44-.87,2.19-1.24.72-.36,1.54-.29,2.32-.1.23.06.62.12.19.49-.11.09-.1.31-.16.47-.27.68-.53,1.36-.83,2.03-.24.54-.53,1.06-.79,1.6-.17.34-.38.67-.46,1.03-.17.68-.51,1.28-.8,1.9-.23.5-.36,1.04-.59,1.55-.2.43-.47.83-.7,1.25-.08.14-.11.3-.18.45-.19.43-.38.86-.6,1.27-.22.43-.48.84-.7,1.27-.08.15-.1.34-.16.51-.03.09-.06.22-.13.26-.5.26-.67.76-.87,1.21-.31.7-.67,1.35-1.22,1.89-.78.78-1.09,1.81-1.37,2.82-.16.57-.08,1.2-.12,1.8,0,.08-.04.15-.07.24-.28-.13-.37-.32-.35-.6.02-.29-.02-.59.03-.87.1-.63.23-1.26.37-1.88.04-.19.15-.36.23-.55.29-.69.51-1.43,1.15-1.93.17-.13.26-.35.4-.54Zm1.64-27.51c-.06.32-.1.6-.18.88-.02.08-.12.15-.2.21-.21.19-.42.96-.3,1.22.03.07.13.14.2.14.29.02.58-.03.86.02.31.05.5-.05.57-.33.04-.17.04-.37,0-.54-.14-.6-.2-1.24-.95-1.6Zm5.73,12.28c-.32.04-.57.08-.82.1-.33.02-.55.23-.61.57-.03.17-.13.33-.15.5-.03.34-.06.69-.02,1.03.01.11.27.19.44.3.4-.86.78-1.68,1.16-2.49Z"/>
          <path class="cls-1" d="m11.48,12.83c-.08.5-.2.95-.21,1.41-.01.31.12.62.19.93.04.16.1.32.1.47-.01.73-.04,1.46-.08,2.18,0,.11-.18.3-.24.29-.6-.11-1.11.06-1.57.44-.06.05-.17.03-.23.05-.1-.83-.2-1.63-.31-2.44-.04-.32-.06-.64-.16-.94-.17-.54.05-1.03.11-1.55.08-.64.48-1.11.8-1.63.1-.16.37-.26.58-.28.32-.03.45.26.54.5.16.44.15.45.48.56Z"/>
          <path class="cls-1" d="m8.7,19.98c-.51-.73-1.07-1.27-2-1.05-.34.08-.7.25-.61.75-.04,0-.09.01-.13.02-.09-.24-.19-.47-.25-.71-.09-.32-.17-.64-.23-.96-.09-.47-.17-.93-.24-1.4-.04-.24-.08-.48-.07-.72.01-.21.12-.41.16-.63.08-.48.77-1.19,1.17-1.23.33-.03.47.12.62.4.22.43.44.87.81,1.21.15.14.23.4.27.62.13.68.21,1.36.32,2.04.07.41.16.82.22,1.24.02.13-.03.28-.04.42Z"/>
          <path class="cls-1" d="m12.47,17.69c-.02-.17-.07-.27-.04-.34.15-.44.1-.87,0-1.31-.06-.3,0-.64-.11-.91-.2-.54-.02-1.08-.07-1.62-.02-.21-.12-.41-.14-.62-.02-.24-.04-.51.03-.73.03-.07.37-.12.52-.05.16.07.29.16.49.18.52.05.59.58.82.93.39.58.33,1.25.33,1.91,0,.53.02,1.07.08,1.6.04.36-.11.45-.44.47-.34.02-.68.07-1.01.16-.15.04-.27.19-.46.33Z"/>
          <path class="cls-1" d="m12.15,19.61c.25.48.14.84-.28,1.15-.13.1-.26.22-.35.36-.31.47-.66.46-1.03.05-.43-.48-.27-1-.23-1.52.02-.26.08-.53.2-.76.07-.14.29-.2.44-.29.07.12.16.23.2.35.15.58.52.83,1.05.67Z"/>
          <path class="cls-1" d="m12.89,18.59c0-.53.19-.83.63-.97.13-.04.31.03.46.07.05.01.09.12.14.13.53.05.4.45.42.77.02.31.12.63.05.92-.08.33-.28.64-.48.92-.03.05-.37-.02-.45-.12-.16-.19-.24-.44-.34-.66-.02-.05-.02-.14-.05-.16-.44-.2-.34-.61-.37-.89Z"/>
          <path class="cls-1" d="m6.8,21.87c-.03-.53-.04-.92-.08-1.31-.03-.32.21-.88.47-.99.34-.15.63,0,.71.37.06.25.22.49.19.72-.04.31-.14.68-.35.87-.23.21-.63.24-.94.34Z"/>
          <path class="cls-1" d="m26.31,16.46c-.02.2,0,.4-.07.5-.22.28-.48.53-.74.78-.21.21-.44.4-.65.59-.18-.12-.37-.23-.54-.37-.07-.06-.17-.21-.14-.26.12-.23.26-.47.44-.66.13-.15.35-.21.5-.35.24-.21.45-.37.74-.08.04.04.22-.07.46-.16Z"/>
          <path class="cls-1" d="m44.75,18.95c.75.36.81,1,.95,1.6.04.17.04.37,0,.54-.07.29-.26.38-.57.33-.28-.04-.57,0-.86-.02-.07,0-.17-.08-.2-.14-.11-.26.09-1.03.3-1.22.07-.07.17-.13.2-.21.07-.27.12-.56.18-.88Z"/>
          <path class="cls-1" d="m50.48,31.23c-.38.81-.76,1.63-1.16,2.49-.17-.11-.42-.19-.44-.3-.05-.34-.01-.69.02-1.03.02-.17.12-.33.15-.5.06-.34.28-.55.61-.57.25-.01.5-.06.82-.1Z"/>
        </g>
      </g>
    </g>
  </g>
</svg>