<?xml version="1.0" encoding="UTF-8"?>
<svg id="_レイヤー_2" data-name="レイヤー 2" xmlns="http://www.w3.org/2000/svg" viewBox="0 0 120.09 23.53">
  <g id="_デザイン" data-name="デザイン">
    <path d="m44.31,23.48c.04-.45.06-.91.14-1.35.28-1.52.3-3.04.16-4.58-.12-1.24,0-2.51.03-3.77,0-.12.09-.24.12-.36.1-.41.24-.82.29-1.23.13-1.02.23-2.04.32-3.06.04-.46.05-.92.02-1.38-.07-1.21-.14-2.42-.25-3.63-.03-.37-.19-.73-.25-1.1-.05-.31.1-.41.42-.41.33,0,.66-.1.98-.17,1.43-.3,2.86-.62,4.3-.9.34-.07.71-.04,1.05.03.6.12,1.2.31,1.79.48.8.22,1.59.47,2.4.67,1.02.25,1.68.97,2.29,1.72.42.51.69,1.15,1,1.75.08.15.08.35.08.53.01.35.03.7-.01,1.04-.03.23-.16.44-.24.67-.37,1.13-1.1,2.02-2.03,2.7-1.26.93-2.56,1.81-3.92,2.59-1.21.69-2.52,1.2-3.76,1.83-.98.5-1.96,1.01-2.88,1.61-.28.18-.44.68-.49,1.06-.1.73-.07,1.48-.11,2.22,0,.15-.08.3-.09.45-.05.48-.15.97-.12,1.45.02.36-.02.6-.35.76-.26.13-.51.29-.76.43-.05-.02-.09-.03-.14-.05Zm1.31-7.17c.14,0,.2,0,.24-.02.97-.5,1.93-1,2.89-1.5.17-.09.34-.2.52-.28,1.12-.52,2.25-1.03,3.37-1.57.44-.21.84-.53,1.28-.75,1.43-.71,2.65-1.65,3.55-2.99.48-.72.59-1.56.61-2.37.02-.96-.63-1.65-1.3-2.27-.72-.66-1.63-.98-2.53-1.3-.56-.2-1.14-.39-1.72-.52-.8-.18-1.59-.52-2.45-.3-.99.25-2.02.29-2.99.7-.69.29-.97.69-.78,1.43.1.39.12.8.14,1.2.02.46-.07.94,0,1.39.22,1.47-.2,2.89-.22,4.34,0,.53-.14,1.05-.27,1.58-.25,1.02-.23,2.11-.32,3.23Z"/>
    <path d="m118.01,21.34c.15-.07.29-.16.44-.19.4-.08.5-.34.42-.69-.18-.85-.37-1.7-.56-2.55-.14-.61-.27-1.21-.42-1.81-.03-.12-.08-.29-.17-.32-.39-.14-.79-.31-1.2-.34-.52-.04-1.05.02-1.56.08-.43.05-.85.24-1.27.25-1.08.02-2.17-.02-3.25-.03-.49,0-.99.03-1.48,0-.18,0-.36-.14-.54-.22.09-.17.14-.4.28-.51.58-.47,1.26-.37,1.9-.21,1.22.32,2.44.28,3.66.09.89-.14,1.77-.34,2.64-.53.09-.02.23-.2.22-.26-.25-.88-.51-1.75-.81-2.61-.27-.78-.63-1.54-.89-2.32-.36-1.09-.68-2.2-1.01-3.31-.05-.16-.02-.35-.09-.5-.08-.15-.21-.33-.36-.38-.1-.03-.31.12-.38.24-.35.54-.68,1.09-1,1.65-.85,1.46-1.69,2.93-2.53,4.4-.18.33-.31.69-.48,1.02-.73,1.36-1.46,2.71-2.19,4.06-.14.26-.31.51-.46.76-.51.9-1.01,1.79-1.52,2.69-.07.12-.13.25-.22.36-.16.18-.23.34-.05.56.06.07.06.26.01.34-.29.47-.57.95-.92,1.37-.11.13-.45.18-.63.1-.26-.11-.17-.36-.05-.58.13-.24.26-.5.34-.76.39-1.27,1.09-2.37,1.74-3.51.47-.83.92-1.68,1.37-2.52.36-.68.63-1.4,1.12-2.02.41-.52.64-1.19.99-1.77.84-1.42,1.69-2.83,2.54-4.25.08-.13.2-.29.18-.41-.08-.46.22-.75.42-1.07.35-.56.73-1.1,1.11-1.64.17-.24.34-.49.54-.7.22-.22.53-.23.69.05.26.48.43,1,.66,1.49.63,1.38.98,2.85,1.39,4.3.19.69.5,1.35.74,2.03.22.63.42,1.28.64,1.91.15.45.29.91.45,1.36.34.97.73,1.92,1.03,2.9.18.58.22,1.19.31,1.79.1.63.2,1.26.28,1.88.02.12.01.26-.05.36-.17.28-1.03.53-1.34.4-.23-.1-.46-.22-.69-.32v-.12Z"/>
    <path d="m97.01,21.66c-.08-.19-.17-.37-.25-.57-.23-.55-.44-1.12-.69-1.66-.18-.38-.47-.71-.62-1.1-.3-.76-1.01-1.17-1.48-1.77-.08-.11-.17-.22-.24-.34-.36-.54-.64-1.14-1.08-1.6-.62-.65-1.34-1.21-2.03-1.79-.2-.17-.4-.29-.11-.61-.06-.02-.12-.03-.18-.05-.68.76-1.36,1.51-2.03,2.29-.29.34-.51.73-.79,1.07-.31.38-.56.77-.62,1.27-.01.13-.07.32-.17.37-.49.26-.62.75-.68,1.21-.1.67-.11,1.37-.08,2.05.02.41.24.82.26,1.23,0,.23-.16.53-.34.7-.16.15-.45.17-.69.22-.03,0-.14-.17-.15-.27-.06-.73-.14-1.46-.16-2.19-.02-.71.01-1.42.03-2.13.02-1,.07-2,.08-3.01,0-.69-.05-1.38-.04-2.07.01-.73.09-1.46.12-2.19.05-1.21.08-2.42.1-3.64.01-.89,0-1.77-.02-2.66,0-.34.2-.45.48-.46.33-.01.38.24.39.49.05,1.53.12,3.06.12,4.59,0,1.12-.12,2.24-.15,3.37-.03,1.03-.01,2.06-.01,3.08,0,.1.06.2.11.38.28-.31.51-.57.73-.83.66-.77,1.3-1.56,1.98-2.31.91-1,1.84-1.99,2.78-2.96.68-.7,1.41-1.35,2.09-2.04.54-.54,1.02-1.13,1.56-1.67.74-.74,1.47-1.48,2.26-2.15.26-.22.57-.61,1.03-.41.19.09.35.24.53.37-.15.18-.26.47-.44.52-1.53.42-2.28,1.77-3.33,2.75-.97.9-1.89,1.85-2.81,2.79-.56.57-1.1,1.15-1.65,1.73.54.45,1.01.89,1.53,1.24.88.59,1.35,1.51,1.99,2.29.42.51.89.98,1.3,1.49.28.35.52.74.76,1.11.45.7.86,1.42,1.33,2.11.38.56.29,1.15-.28,1.51-.11.07-.21.14-.32.21-.01,0-.03,0-.13.02Z"/>
    <path d="m0,1.28c.38-.22.75-.21,1.09.02.97.68,1.97,1.33,2.87,2.09,1.11.94,2.13,1.98,3.18,2.98,1.24,1.18,2.46,2.36,3.7,3.54.41.39.84.76,1.28,1.11.1.07.37.06.46-.02.7-.6,1.37-1.22,2.05-1.85,1.04-.96,2.09-1.9,3.1-2.89.64-.63,1.32-1.28,1.78-2.04.93-1.55,2.31-2.69,3.45-4.04.27-.31.89-.2,1.02.19.04.12-.03.39-.13.43-.81.35-1.25,1.1-1.82,1.69-.71.74-1.35,1.55-1.96,2.38-1.14,1.53-2.54,2.79-3.97,4.04-.72.63-1.34,1.38-2.01,2.07-.13.13-.25.3-.41.36-.48.2-.58.58-.6,1.03-.02.52-.03,1.04-.06,1.57-.05.88-.14,1.77-.17,2.65-.01.5.08,1,.11,1.51,0,.12-.04.25-.05.37-.03.53-.03,1.06-.09,1.59-.05.45-.19.9-.27,1.35-.07.38-.11.77-.2,1.14-.04.16-.15.34-.28.43-.18.12-.41.19-.63.25-.27.07-.48-.03-.44-.33.04-.33.15-.65.23-.97.11-.42.29-.83.31-1.25.06-1.31.04-2.62.1-3.93.05-1.11.14-2.23.24-3.34.07-.77-.26-1.35-.78-1.86-.4-.39-.79-.8-1.19-1.18-.66-.63-1.34-1.24-2.01-1.87-.85-.8-1.69-1.61-2.53-2.42-.66-.64-1.26-1.35-1.97-1.91-.93-.73-1.92-1.39-2.94-2-.38-.23-.44-.49-.49-.85Z"/>
    <path d="m30.1,20.72c-.36-.1-.78-.12-1.07-.33-.32-.24-.52-.64-.78-.97-.18-.23-.35-.48-.57-.66-.46-.37-.75-.78-.81-1.41-.06-.62-.32-1.23-.42-1.85-.19-1.11-.32-2.23-.48-3.34-.23-1.6.3-3.13.43-4.7.03-.39.02-.8.11-1.18.09-.38.24-.76.45-1.09.07-.11.47-.13.6-.03.16.13.3.43.28.63-.09.78-.34,1.53-.52,2.29-.24,1.06-.2,2.18-.27,3.27-.02.35.02.7.01,1.05-.02,1.35.25,2.64.71,3.89.08.21.06.45.13.66.33,1.02,1,1.81,1.73,2.56.22.22.46.27.77.2.83-.18,1.58-.51,2.19-1.12.16-.16.31-.34.49-.46.74-.47.89-1.26,1.12-2.01.05-.16.09-.33.17-.47.59-1.01,1.09-2.09,1.15-3.24.08-1.51.83-2.76,1.3-4.12.08-.24.3-.51.24-.7-.09-.31-.29-.67-.56-.83-.32-.19-.33-.32-.15-.58.38-.54.74-.68,1.34-.54.37.09.53.28.49.69-.11,1.34-.49,2.61-1.09,3.8-.38.75-.31,1.57-.47,2.35-.13.61-.27,1.24-.53,1.81-.42.96-.87,1.89-1.1,2.93-.09.41-.38.8-.65,1.14-.26.33-.61.58-.92.88-.71.67-2.43,1.41-3.36,1.48Z"/>
    <path d="m77.43,4.24c-.32.32-.62.69-.99.95-.33.23-.74.34-1.12.48-.22.08-.47.2-.58-.17-.01-.05-.17-.09-.25-.08-.53.05-1.05.15-1.58-.07-.11-.05-.37.11-.47.24-.11.14-.17.37-.17.56.02.82.09,1.63.12,2.45.02.47.07.95,0,1.41-.18,1.18-.33,2.38-.65,3.53-.22.77-.18,1.53-.26,2.3-.15,1.46-.21,2.93-.59,4.35-.01.04-.03.08-.03.12-.18.84.03,1.18.88,1.16.61-.01,1.22-.16,1.82-.27.38-.08.75-.26,1.13-.31.21-.03.46.1.65.22.18.11.12.24-.07.34-.18.09-.34.23-.51.35-.07.05-.13.11-.21.13-.6.12-1.2.27-1.81.32-.76.06-1.52.04-2.28.05-.96.01-1.92.01-2.87.05-.23,0-.45.16-.68.22-.14.04-.34.1-.43.04-.09-.07-.1-.28-.08-.42.06-.56.31-.81.85-.84.51-.03,1.02-.05,1.52-.02.44.03.72-.17.85-.55.17-.5.31-1.02.41-1.54.11-.62.19-1.25.25-1.88.07-.7.08-1.41.15-2.1.06-.54.18-1.08.28-1.62.04-.22.09-.43.12-.65.07-.41.08-.85.22-1.24.35-1,.32-2.03.31-3.05-.01-1.06-.1-2.11-.15-3.21-.25.05-.51.12-.78.15-.56.06-1.13.06-1.69.16-.49.09-.98.26-1.44.45-.4.16-.61.05-.78-.3-.34-.69-.27-.83.51-.93.48-.06.96-.08,1.44-.12,1.18-.11,2.36-.22,3.54-.33.22-.02.46-.04.68,0,1.39.24,2.68-.12,3.98-.53.2-.06.45.01.68.02.03.06.05.12.08.17Z"/>
    <path d="m55.76,22.24s-.07.11-.14.16c-.07.05-.16.05-.24.08-.77.28-.77.28-.92-.53-.08-.44-.13-.89-.21-1.34-.2-1-.75-1.84-1.29-2.68-.06-.09-.14-.19-.17-.29-.18-.85-.73-1.48-1.21-2.15-.13-.18-.24-.6-.17-.65.23-.18.55-.25.84-.32.04,0,.15.2.19.33.03.08-.02.23.03.27.69.62,1.07,1.44,1.45,2.26.53,1.14,1.04,2.28,1.51,3.45.17.42.21.9.32,1.42Z"/>
  </g>
</svg>